<svg width="32" height="32" viewBox="0 0 32 32" fill="none" xmlns="http://www.w3.org/2000/svg">
<rect width="32" height="32" rx="7" fill="#FEF0F0"/>
<path d="M19.2082 10.1182C18.5514 10.1284 17.9088 10.3118 17.3455 10.6498C16.7822 10.9878 16.318 11.4684 15.9999 12.0432C15.6818 11.4684 15.2176 10.9878 14.6543 10.6498C14.091 10.3118 13.4484 10.1284 12.7916 10.1182C11.7444 10.1637 10.7579 10.6218 10.0474 11.3924C9.33698 12.1629 8.96037 13.1834 8.99989 14.2307C8.99989 16.8831 11.7917 19.78 14.1332 21.7441C14.656 22.1834 15.317 22.4242 15.9999 22.4242C16.6828 22.4242 17.3438 22.1834 17.8666 21.7441C20.2081 19.78 22.9999 16.8831 22.9999 14.2307C23.0394 13.1834 22.6628 12.1629 21.9524 11.3924C21.2419 10.6218 20.2553 10.1637 19.2082 10.1182Z" fill="url(#paint0_linear_1004_8)"/>
<defs>
<linearGradient id="paint0_linear_1004_8" x1="15.9999" y1="10.1182" x2="15.9999" y2="22.4242" gradientUnits="userSpaceOnUse">
<stop stop-color="#FFB0B0"/>
<stop offset="1" stop-color="#FF4343"/>
</linearGradient>
</defs>
</svg>
