<svg width="32" height="32" viewBox="0 0 32 32" fill="none" xmlns="http://www.w3.org/2000/svg">
<rect x="0.5" y="0.5" width="31" height="31" rx="6.5" fill="white" stroke="#F8F8F8"/>
<path d="M19.2112 10C18.5543 10.0102 17.9118 10.1936 17.3484 10.5316C16.7851 10.8696 16.321 11.3502 16.0028 11.925C15.6847 11.3502 15.2205 10.8696 14.6572 10.5316C14.0939 10.1936 13.4514 10.0102 12.7945 10C11.7474 10.0455 10.7608 10.5036 10.0504 11.2741C9.33991 12.0447 8.9633 13.0651 9.00282 14.1125C9.00282 16.7649 11.7947 19.6617 14.1362 21.6258C14.659 22.0652 15.3199 22.306 16.0028 22.306C16.6857 22.306 17.3467 22.0652 17.8695 21.6258C20.211 19.6617 23.0028 16.7649 23.0028 14.1125C23.0423 13.0651 22.6657 12.0447 21.9553 11.2741C21.2448 10.5036 20.2583 10.0455 19.2112 10ZM17.1199 20.7333C16.8072 20.9966 16.4116 21.141 16.0028 21.141C15.5941 21.141 15.1984 20.9966 14.8857 20.7333C11.8886 18.2186 10.1695 15.8059 10.1695 14.1125C10.1296 13.3744 10.3832 12.6505 10.875 12.0987C11.3667 11.5468 12.0567 11.2118 12.7945 11.1667C13.5323 11.2118 14.2223 11.5468 14.714 12.0987C15.2058 12.6505 15.4594 13.3744 15.4195 14.1125C15.4195 14.2672 15.4809 14.4156 15.5903 14.525C15.6997 14.6344 15.8481 14.6958 16.0028 14.6958C16.1575 14.6958 16.3059 14.6344 16.4153 14.525C16.5247 14.4156 16.5862 14.2672 16.5862 14.1125C16.5463 13.3744 16.7999 12.6505 17.2916 12.0987C17.7834 11.5468 18.4734 11.2118 19.2112 11.1667C19.9489 11.2118 20.6389 11.5468 21.1307 12.0987C21.6224 12.6505 21.876 13.3744 21.8362 14.1125C21.8362 15.8059 20.1171 18.2186 17.1199 20.731V20.7333Z" fill="#D9D9D9"/>
</svg>
